# CastIQ Stage 1 sample test model — a rough AFO-shaped solid, NOT anatomical.
# Y-up convention: X=medial/lateral, Y=vertical, Z=anterior/posterior.
# Units: model units are arbitrary (roughly ~1 unit = 250mm here) — always
# calibrate against a known distance rather than assuming a scale.
v 0.110000 0.000000 0.000000
v 0.140000 1.600000 0.000000
v 0.101627 0.000000 0.042095
v 0.129343 1.600000 0.053576
v 0.077782 0.000000 0.077782
v 0.098995 1.600000 0.098995
v 0.042095 0.000000 0.101627
v 0.053576 1.600000 0.129343
v 0.000000 0.000000 0.110000
v 0.000000 1.600000 0.140000
v -0.042095 0.000000 0.101627
v -0.053576 1.600000 0.129343
v -0.077782 0.000000 0.077782
v -0.098995 1.600000 0.098995
v -0.101627 0.000000 0.042095
v -0.129343 1.600000 0.053576
v -0.110000 0.000000 0.000000
v -0.140000 1.600000 0.000000
v -0.101627 0.000000 -0.042095
v -0.129343 1.600000 -0.053576
v -0.077782 0.000000 -0.077782
v -0.098995 1.600000 -0.098995
v -0.042095 0.000000 -0.101627
v -0.053576 1.600000 -0.129343
v -0.000000 0.000000 -0.110000
v -0.000000 1.600000 -0.140000
v 0.042095 0.000000 -0.101627
v 0.053576 1.600000 -0.129343
v 0.077782 0.000000 -0.077782
v 0.098995 1.600000 -0.098995
v 0.101627 0.000000 -0.042095
v 0.129343 1.600000 -0.053576
v 0.000000 1.600000 0.000000
v -0.090000 -0.140000 -0.060000
v 0.090000 -0.140000 -0.060000
v -0.090000 0.020000 -0.060000
v 0.090000 0.020000 -0.060000
v -0.090000 -0.140000 0.300000
v 0.090000 -0.140000 0.300000
v -0.090000 0.020000 0.300000
v 0.090000 0.020000 0.300000
f 1 2 4
f 1 4 3
f 3 4 6
f 3 6 5
f 5 6 8
f 5 8 7
f 7 8 10
f 7 10 9
f 9 10 12
f 9 12 11
f 11 12 14
f 11 14 13
f 13 14 16
f 13 16 15
f 15 16 18
f 15 18 17
f 17 18 20
f 17 20 19
f 19 20 22
f 19 22 21
f 21 22 24
f 21 24 23
f 23 24 26
f 23 26 25
f 25 26 28
f 25 28 27
f 27 28 30
f 27 30 29
f 29 30 32
f 29 32 31
f 31 32 2
f 31 2 1
f 33 2 4
f 33 4 6
f 33 6 8
f 33 8 10
f 33 10 12
f 33 12 14
f 33 14 16
f 33 16 18
f 33 18 20
f 33 20 22
f 33 22 24
f 33 24 26
f 33 26 28
f 33 28 30
f 33 30 32
f 33 32 2
f 34 35 37
f 34 37 36
f 39 38 40
f 39 40 41
f 34 38 39
f 34 39 35
f 36 37 41
f 36 41 40
f 34 36 40
f 34 40 38
f 35 39 41
f 35 41 37
